<svg width="214" height="64" viewBox="0 0 214 64" fill="none" xmlns="http://www.w3.org/2000/svg">
<rect width="214" height="64" rx="32" fill="#0D6EFD"/>
<path d="M50.0976 40.23C48.8402 40.23 47.6826 40.0307 46.6246 39.632C45.5819 39.218 44.6696 38.643 43.8876 37.907C43.1056 37.1557 42.4999 36.274 42.0706 35.262C41.6412 34.25 41.4266 33.146 41.4266 31.95C41.4266 30.754 41.6412 29.65 42.0706 28.638C42.4999 27.626 43.1056 26.752 43.8876 26.016C44.6849 25.2647 45.6126 24.6897 46.6706 24.291C47.7286 23.877 48.8862 23.67 50.1436 23.67C51.5082 23.67 52.7349 23.8923 53.8236 24.337C54.9276 24.7817 55.8552 25.4333 56.6066 26.292L54.7206 28.132C54.0919 27.5033 53.4096 27.0433 52.6736 26.752C51.9529 26.4453 51.1556 26.292 50.2816 26.292C49.4382 26.292 48.6562 26.43 47.9356 26.706C47.2149 26.982 46.5939 27.373 46.0726 27.879C45.5512 28.385 45.1449 28.983 44.8536 29.673C44.5776 30.363 44.4396 31.122 44.4396 31.95C44.4396 32.7627 44.5776 33.514 44.8536 34.204C45.1449 34.894 45.5512 35.4997 46.0726 36.021C46.5939 36.527 47.2072 36.918 47.9126 37.194C48.6179 37.47 49.3999 37.608 50.2586 37.608C51.0559 37.608 51.8226 37.4853 52.5586 37.24C53.3099 36.9793 54.0229 36.55 54.6976 35.952L56.3996 38.183C55.5562 38.8577 54.5749 39.3713 53.4556 39.724C52.3516 40.0613 51.2322 40.23 50.0976 40.23ZM53.5706 37.792V31.766H56.3996V38.183L53.5706 37.792ZM65.8402 40.161C64.4755 40.161 63.2795 39.8927 62.2522 39.356C61.2402 38.804 60.4505 38.0527 59.8832 37.102C59.3312 36.1513 59.0552 35.0703 59.0552 33.859C59.0552 32.6323 59.3235 31.5513 59.8602 30.616C60.4122 29.6653 61.1635 28.9217 62.1142 28.385C63.0802 27.8483 64.1765 27.58 65.4032 27.58C66.5992 27.58 67.6648 27.8407 68.6002 28.362C69.5355 28.8833 70.2715 29.6193 70.8082 30.57C71.3448 31.5207 71.6132 32.64 71.6132 33.928C71.6132 34.0507 71.6055 34.1887 71.5902 34.342C71.5902 34.4953 71.5825 34.641 71.5672 34.779H61.3322V32.87H70.0492L68.9222 33.468C68.9375 32.7627 68.7918 32.1417 68.4852 31.605C68.1785 31.0683 67.7568 30.6467 67.2202 30.34C66.6988 30.0333 66.0932 29.88 65.4032 29.88C64.6978 29.88 64.0768 30.0333 63.5402 30.34C63.0188 30.6467 62.6048 31.076 62.2982 31.628C62.0068 32.1647 61.8612 32.801 61.8612 33.537V33.997C61.8612 34.733 62.0298 35.3847 62.3672 35.952C62.7045 36.5193 63.1798 36.9563 63.7932 37.263C64.4065 37.5697 65.1118 37.723 65.9092 37.723C66.5992 37.723 67.2202 37.6157 67.7722 37.401C68.3242 37.1863 68.8148 36.849 69.2442 36.389L70.7852 38.16C70.2332 38.804 69.5355 39.3023 68.6922 39.655C67.8642 39.9923 66.9135 40.161 65.8402 40.161ZM78.9978 40.161C77.6484 40.161 76.6058 39.816 75.8698 39.126C75.1338 38.4207 74.7658 37.3857 74.7658 36.021V25.004H77.6408V35.952C77.6408 36.5347 77.7864 36.987 78.0778 37.309C78.3844 37.631 78.8061 37.792 79.3428 37.792C79.9868 37.792 80.5234 37.6233 80.9528 37.286L81.7578 39.333C81.4204 39.609 81.0064 39.816 80.5158 39.954C80.0251 40.092 79.5191 40.161 78.9978 40.161ZM72.7418 30.11V27.81H80.9298V30.11H72.7418ZM94.2743 40.161C93.2469 40.161 92.2579 40.0307 91.3073 39.77C90.3719 39.494 89.6283 39.1643 89.0763 38.781L90.1803 36.596C90.7323 36.9487 91.3916 37.24 92.1583 37.47C92.9249 37.7 93.6916 37.815 94.4583 37.815C95.3629 37.815 96.0146 37.6923 96.4133 37.447C96.8273 37.2017 97.0343 36.872 97.0343 36.458C97.0343 36.1207 96.8963 35.8677 96.6203 35.699C96.3443 35.515 95.9839 35.377 95.5393 35.285C95.0946 35.193 94.5963 35.1087 94.0443 35.032C93.5076 34.9553 92.9633 34.8557 92.4113 34.733C91.8746 34.595 91.3839 34.4033 90.9393 34.158C90.4946 33.8973 90.1343 33.5523 89.8583 33.123C89.5823 32.6937 89.4443 32.1263 89.4443 31.421C89.4443 30.639 89.6666 29.9643 90.1113 29.397C90.5559 28.8143 91.1769 28.3697 91.9743 28.063C92.7869 27.741 93.7453 27.58 94.8493 27.58C95.6773 27.58 96.5129 27.672 97.3563 27.856C98.1996 28.04 98.8973 28.3007 99.4493 28.638L98.3453 30.823C97.7626 30.4703 97.1723 30.2327 96.5743 30.11C95.9916 29.972 95.4089 29.903 94.8263 29.903C93.9523 29.903 93.3006 30.0333 92.8713 30.294C92.4573 30.5547 92.2503 30.8843 92.2503 31.283C92.2503 31.651 92.3883 31.927 92.6643 32.111C92.9403 32.295 93.3006 32.4407 93.7453 32.548C94.1899 32.6553 94.6806 32.7473 95.2173 32.824C95.7693 32.8853 96.3136 32.985 96.8503 33.123C97.3869 33.261 97.8776 33.4527 98.3223 33.698C98.7823 33.928 99.1503 34.2577 99.4263 34.687C99.7023 35.1163 99.8403 35.676 99.8403 36.366C99.8403 37.1327 99.6103 37.7997 99.1503 38.367C98.7056 38.9343 98.0693 39.379 97.2413 39.701C96.4133 40.0077 95.4243 40.161 94.2743 40.161ZM106.939 40.161C105.59 40.161 104.547 39.816 103.811 39.126C103.075 38.4207 102.707 37.3857 102.707 36.021V25.004H105.582V35.952C105.582 36.5347 105.728 36.987 106.019 37.309C106.326 37.631 106.748 37.792 107.284 37.792C107.928 37.792 108.465 37.6233 108.894 37.286L109.699 39.333C109.362 39.609 108.948 39.816 108.457 39.954C107.967 40.092 107.461 40.161 106.939 40.161ZM100.683 30.11V27.81H108.871V30.11H100.683ZM119.631 40V37.516L119.47 36.987V32.64C119.47 31.7967 119.217 31.145 118.711 30.685C118.205 30.2097 117.439 29.972 116.411 29.972C115.721 29.972 115.039 30.0793 114.364 30.294C113.705 30.5087 113.145 30.8077 112.685 31.191L111.558 29.098C112.218 28.592 113 28.2163 113.904 27.971C114.824 27.7103 115.775 27.58 116.756 27.58C118.535 27.58 119.907 28.0093 120.873 28.868C121.855 29.7113 122.345 31.0223 122.345 32.801V40H119.631ZM115.767 40.161C114.847 40.161 114.042 40.0077 113.352 39.701C112.662 39.379 112.126 38.942 111.742 38.39C111.374 37.8227 111.19 37.1863 111.19 36.481C111.19 35.791 111.351 35.17 111.673 34.618C112.011 34.066 112.555 33.629 113.306 33.307C114.058 32.985 115.054 32.824 116.296 32.824H119.861V34.733H116.503C115.522 34.733 114.863 34.894 114.525 35.216C114.188 35.5227 114.019 35.906 114.019 36.366C114.019 36.8873 114.226 37.3013 114.64 37.608C115.054 37.9147 115.629 38.068 116.365 38.068C117.071 38.068 117.699 37.907 118.251 37.585C118.819 37.263 119.225 36.7877 119.47 36.159L119.953 37.884C119.677 38.6047 119.179 39.1643 118.458 39.563C117.753 39.9617 116.856 40.161 115.767 40.161ZM126.035 40V27.718H128.772V31.099L128.45 30.11C128.818 29.282 129.393 28.6533 130.175 28.224C130.972 27.7947 131.961 27.58 133.142 27.58V30.317C133.019 30.2863 132.904 30.271 132.797 30.271C132.69 30.2557 132.582 30.248 132.475 30.248C131.386 30.248 130.52 30.57 129.876 31.214C129.232 31.8427 128.91 32.7857 128.91 34.043V40H126.035ZM140.653 40.161C139.304 40.161 138.261 39.816 137.525 39.126C136.789 38.4207 136.421 37.3857 136.421 36.021V25.004H139.296V35.952C139.296 36.5347 139.442 36.987 139.733 37.309C140.04 37.631 140.461 37.792 140.998 37.792C141.642 37.792 142.179 37.6233 142.608 37.286L143.413 39.333C143.076 39.609 142.662 39.816 142.171 39.954C141.68 40.092 141.174 40.161 140.653 40.161ZM134.397 30.11V27.81H142.585V30.11H134.397ZM151.147 40.161C149.782 40.161 148.586 39.8927 147.559 39.356C146.547 38.804 145.757 38.0527 145.19 37.102C144.638 36.1513 144.362 35.0703 144.362 33.859C144.362 32.6323 144.63 31.5513 145.167 30.616C145.719 29.6653 146.47 28.9217 147.421 28.385C148.387 27.8483 149.483 27.58 150.71 27.58C151.906 27.58 152.971 27.8407 153.907 28.362C154.842 28.8833 155.578 29.6193 156.115 30.57C156.651 31.5207 156.92 32.64 156.92 33.928C156.92 34.0507 156.912 34.1887 156.897 34.342C156.897 34.4953 156.889 34.641 156.874 34.779H146.639V32.87H155.356L154.229 33.468C154.244 32.7627 154.098 32.1417 153.792 31.605C153.485 31.0683 153.063 30.6467 152.527 30.34C152.005 30.0333 151.4 29.88 150.71 29.88C150.004 29.88 149.383 30.0333 148.847 30.34C148.325 30.6467 147.911 31.076 147.605 31.628C147.313 32.1647 147.168 32.801 147.168 33.537V33.997C147.168 34.733 147.336 35.3847 147.674 35.952C148.011 36.5193 148.486 36.9563 149.1 37.263C149.713 37.5697 150.418 37.723 151.216 37.723C151.906 37.723 152.527 37.6157 153.079 37.401C153.631 37.1863 154.121 36.849 154.551 36.389L156.092 38.16C155.54 38.804 154.842 39.3023 153.999 39.655C153.171 39.9923 152.22 40.161 151.147 40.161ZM164.879 40.161C163.699 40.161 162.633 39.9003 161.682 39.379C160.747 38.8423 160.011 38.1063 159.474 37.171C158.938 36.2357 158.669 35.1317 158.669 33.859C158.669 32.5863 158.938 31.4823 159.474 30.547C160.011 29.6117 160.747 28.8833 161.682 28.362C162.633 27.8407 163.699 27.58 164.879 27.58C165.907 27.58 166.827 27.81 167.639 28.27C168.452 28.7147 169.096 29.397 169.571 30.317C170.047 31.237 170.284 32.4177 170.284 33.859C170.284 35.285 170.054 36.4657 169.594 37.401C169.134 38.321 168.498 39.011 167.685 39.471C166.873 39.931 165.937 40.161 164.879 40.161ZM165.224 37.7C165.914 37.7 166.528 37.5467 167.064 37.24C167.616 36.9333 168.053 36.4887 168.375 35.906C168.713 35.3233 168.881 34.641 168.881 33.859C168.881 33.0617 168.713 32.3793 168.375 31.812C168.053 31.2293 167.616 30.7847 167.064 30.478C166.528 30.1713 165.914 30.018 165.224 30.018C164.534 30.018 163.913 30.1713 163.361 30.478C162.825 30.7847 162.388 31.2293 162.05 31.812C161.728 32.3793 161.567 33.0617 161.567 33.859C161.567 34.641 161.728 35.3233 162.05 35.906C162.388 36.4887 162.825 36.9333 163.361 37.24C163.913 37.5467 164.534 37.7 165.224 37.7ZM168.95 40V37.102L169.065 33.836L168.835 30.57V22.934H171.687V40H168.95Z" fill="white"/>
</svg>
