<svg width="280" height="64" viewBox="0 0 280 64" fill="none" xmlns="http://www.w3.org/2000/svg">
<rect width="280" height="64" rx="3" fill="#DC3545"/>
<path d="M81.7836 40.23C80.5263 40.23 79.3686 40.0307 78.3106 39.632C77.2679 39.218 76.3556 38.643 75.5736 37.907C74.7916 37.1557 74.1859 36.274 73.7566 35.262C73.3273 34.25 73.1126 33.146 73.1126 31.95C73.1126 30.754 73.3273 29.65 73.7566 28.638C74.1859 27.626 74.7916 26.752 75.5736 26.016C76.3709 25.2647 77.2986 24.6897 78.3566 24.291C79.4146 23.877 80.5723 23.67 81.8296 23.67C83.1943 23.67 84.4209 23.8923 85.5096 24.337C86.6136 24.7817 87.5413 25.4333 88.2926 26.292L86.4066 28.132C85.7779 27.5033 85.0956 27.0433 84.3596 26.752C83.6389 26.4453 82.8416 26.292 81.9676 26.292C81.1243 26.292 80.3423 26.43 79.6216 26.706C78.9009 26.982 78.2799 27.373 77.7586 27.879C77.2373 28.385 76.8309 28.983 76.5396 29.673C76.2636 30.363 76.1256 31.122 76.1256 31.95C76.1256 32.7627 76.2636 33.514 76.5396 34.204C76.8309 34.894 77.2373 35.4997 77.7586 36.021C78.2799 36.527 78.8933 36.918 79.5986 37.194C80.3039 37.47 81.0859 37.608 81.9446 37.608C82.7419 37.608 83.5086 37.4853 84.2446 37.24C84.9959 36.9793 85.7089 36.55 86.3836 35.952L88.0856 38.183C87.2423 38.8577 86.2609 39.3713 85.1416 39.724C84.0376 40.0613 82.9183 40.23 81.7836 40.23ZM85.2566 37.792V31.766H88.0856V38.183L85.2566 37.792ZM97.5262 40.161C96.1615 40.161 94.9655 39.8927 93.9382 39.356C92.9262 38.804 92.1365 38.0527 91.5692 37.102C91.0172 36.1513 90.7412 35.0703 90.7412 33.859C90.7412 32.6323 91.0095 31.5513 91.5462 30.616C92.0982 29.6653 92.8495 28.9217 93.8002 28.385C94.7662 27.8483 95.8625 27.58 97.0892 27.58C98.2852 27.58 99.3509 27.8407 100.286 28.362C101.222 28.8833 101.958 29.6193 102.494 30.57C103.031 31.5207 103.299 32.64 103.299 33.928C103.299 34.0507 103.292 34.1887 103.276 34.342C103.276 34.4953 103.269 34.641 103.253 34.779H93.0182V32.87H101.735L100.608 33.468C100.624 32.7627 100.478 32.1417 100.171 31.605C99.8645 31.0683 99.4429 30.6467 98.9062 30.34C98.3849 30.0333 97.7792 29.88 97.0892 29.88C96.3839 29.88 95.7629 30.0333 95.2262 30.34C94.7049 30.6467 94.2909 31.076 93.9842 31.628C93.6929 32.1647 93.5472 32.801 93.5472 33.537V33.997C93.5472 34.733 93.7159 35.3847 94.0532 35.952C94.3905 36.5193 94.8659 36.9563 95.4792 37.263C96.0925 37.5697 96.7979 37.723 97.5952 37.723C98.2852 37.723 98.9062 37.6157 99.4582 37.401C100.01 37.1863 100.501 36.849 100.93 36.389L102.471 38.16C101.919 38.804 101.222 39.3023 100.378 39.655C99.5502 39.9923 98.5995 40.161 97.5262 40.161ZM110.684 40.161C109.334 40.161 108.292 39.816 107.556 39.126C106.82 38.4207 106.452 37.3857 106.452 36.021V25.004H109.327V35.952C109.327 36.5347 109.472 36.987 109.764 37.309C110.07 37.631 110.492 37.792 111.029 37.792C111.673 37.792 112.209 37.6233 112.639 37.286L113.444 39.333C113.106 39.609 112.692 39.816 112.202 39.954C111.711 40.092 111.205 40.161 110.684 40.161ZM104.428 30.11V27.81H112.616V30.11H104.428ZM127.432 40.23C126.175 40.23 124.971 40.0537 123.821 39.701C122.671 39.333 121.759 38.8653 121.084 38.298L122.119 35.975C122.763 36.481 123.561 36.9027 124.511 37.24C125.462 37.5773 126.436 37.746 127.432 37.746C128.276 37.746 128.958 37.654 129.479 37.47C130.001 37.286 130.384 37.0407 130.629 36.734C130.875 36.412 130.997 36.0517 130.997 35.653C130.997 35.1623 130.821 34.7713 130.468 34.48C130.116 34.1733 129.656 33.9357 129.088 33.767C128.536 33.583 127.915 33.4143 127.225 33.261C126.551 33.1077 125.868 32.9313 125.178 32.732C124.504 32.5173 123.883 32.249 123.315 31.927C122.763 31.5897 122.311 31.145 121.958 30.593C121.606 30.041 121.429 29.3357 121.429 28.477C121.429 27.603 121.659 26.8057 122.119 26.085C122.595 25.349 123.308 24.7663 124.258 24.337C125.224 23.8923 126.443 23.67 127.915 23.67C128.881 23.67 129.84 23.7927 130.79 24.038C131.741 24.2833 132.569 24.636 133.274 25.096L132.331 27.419C131.611 26.9897 130.867 26.6753 130.1 26.476C129.334 26.2613 128.598 26.154 127.892 26.154C127.064 26.154 126.39 26.2537 125.868 26.453C125.362 26.6523 124.987 26.913 124.741 27.235C124.511 27.557 124.396 27.925 124.396 28.339C124.396 28.8297 124.565 29.2283 124.902 29.535C125.255 29.8263 125.707 30.0563 126.259 30.225C126.827 30.3937 127.455 30.5623 128.145 30.731C128.835 30.8843 129.518 31.0607 130.192 31.26C130.882 31.4593 131.503 31.72 132.055 32.042C132.623 32.364 133.075 32.801 133.412 33.353C133.765 33.905 133.941 34.6027 133.941 35.446C133.941 36.3047 133.704 37.102 133.228 37.838C132.768 38.5587 132.055 39.1413 131.089 39.586C130.123 40.0153 128.904 40.23 127.432 40.23ZM141.253 40.161C139.904 40.161 138.861 39.816 138.125 39.126C137.389 38.4207 137.021 37.3857 137.021 36.021V25.004H139.896V35.952C139.896 36.5347 140.042 36.987 140.333 37.309C140.64 37.631 141.061 37.792 141.598 37.792C142.242 37.792 142.779 37.6233 143.208 37.286L144.013 39.333C143.676 39.609 143.262 39.816 142.771 39.954C142.28 40.092 141.774 40.161 141.253 40.161ZM134.997 30.11V27.81H143.185V30.11H134.997ZM153.945 40V37.516L153.784 36.987V32.64C153.784 31.7967 153.531 31.145 153.025 30.685C152.519 30.2097 151.753 29.972 150.725 29.972C150.035 29.972 149.353 30.0793 148.678 30.294C148.019 30.5087 147.459 30.8077 146.999 31.191L145.872 29.098C146.532 28.592 147.314 28.2163 148.218 27.971C149.138 27.7103 150.089 27.58 151.07 27.58C152.849 27.58 154.221 28.0093 155.187 28.868C156.169 29.7113 156.659 31.0223 156.659 32.801V40H153.945ZM150.081 40.161C149.161 40.161 148.356 40.0077 147.666 39.701C146.976 39.379 146.44 38.942 146.056 38.39C145.688 37.8227 145.504 37.1863 145.504 36.481C145.504 35.791 145.665 35.17 145.987 34.618C146.325 34.066 146.869 33.629 147.62 33.307C148.372 32.985 149.368 32.824 150.61 32.824H154.175V34.733H150.817C149.836 34.733 149.177 34.894 148.839 35.216C148.502 35.5227 148.333 35.906 148.333 36.366C148.333 36.8873 148.54 37.3013 148.954 37.608C149.368 37.9147 149.943 38.068 150.679 38.068C151.385 38.068 152.013 37.907 152.565 37.585C153.133 37.263 153.539 36.7877 153.784 36.159L154.267 37.884C153.991 38.6047 153.493 39.1643 152.772 39.563C152.067 39.9617 151.17 40.161 150.081 40.161ZM160.349 40V27.718H163.086V31.099L162.764 30.11C163.132 29.282 163.707 28.6533 164.489 28.224C165.286 27.7947 166.275 27.58 167.456 27.58V30.317C167.333 30.2863 167.218 30.271 167.111 30.271C167.004 30.2557 166.896 30.248 166.789 30.248C165.7 30.248 164.834 30.57 164.19 31.214C163.546 31.8427 163.224 32.7857 163.224 34.043V40H160.349ZM174.967 40.161C173.618 40.161 172.575 39.816 171.839 39.126C171.103 38.4207 170.735 37.3857 170.735 36.021V25.004H173.61V35.952C173.61 36.5347 173.756 36.987 174.047 37.309C174.354 37.631 174.775 37.792 175.312 37.792C175.956 37.792 176.493 37.6233 176.922 37.286L177.727 39.333C177.39 39.609 176.976 39.816 176.485 39.954C175.994 40.092 175.488 40.161 174.967 40.161ZM168.711 30.11V27.81H176.899V30.11H168.711ZM185.461 40.161C184.096 40.161 182.9 39.8927 181.873 39.356C180.861 38.804 180.071 38.0527 179.504 37.102C178.952 36.1513 178.676 35.0703 178.676 33.859C178.676 32.6323 178.944 31.5513 179.481 30.616C180.033 29.6653 180.784 28.9217 181.735 28.385C182.701 27.8483 183.797 27.58 185.024 27.58C186.22 27.58 187.285 27.8407 188.221 28.362C189.156 28.8833 189.892 29.6193 190.429 30.57C190.965 31.5207 191.234 32.64 191.234 33.928C191.234 34.0507 191.226 34.1887 191.211 34.342C191.211 34.4953 191.203 34.641 191.188 34.779H180.953V32.87H189.67L188.543 33.468C188.558 32.7627 188.412 32.1417 188.106 31.605C187.799 31.0683 187.377 30.6467 186.841 30.34C186.319 30.0333 185.714 29.88 185.024 29.88C184.318 29.88 183.697 30.0333 183.161 30.34C182.639 30.6467 182.225 31.076 181.919 31.628C181.627 32.1647 181.482 32.801 181.482 33.537V33.997C181.482 34.733 181.65 35.3847 181.988 35.952C182.325 36.5193 182.8 36.9563 183.414 37.263C184.027 37.5697 184.732 37.723 185.53 37.723C186.22 37.723 186.841 37.6157 187.393 37.401C187.945 37.1863 188.435 36.849 188.865 36.389L190.406 38.16C189.854 38.804 189.156 39.3023 188.313 39.655C187.485 39.9923 186.534 40.161 185.461 40.161ZM199.193 40.161C198.013 40.161 196.947 39.9003 195.996 39.379C195.061 38.8423 194.325 38.1063 193.788 37.171C193.252 36.2357 192.983 35.1317 192.983 33.859C192.983 32.5863 193.252 31.4823 193.788 30.547C194.325 29.6117 195.061 28.8833 195.996 28.362C196.947 27.8407 198.013 27.58 199.193 27.58C200.221 27.58 201.141 27.81 201.953 28.27C202.766 28.7147 203.41 29.397 203.885 30.317C204.361 31.237 204.598 32.4177 204.598 33.859C204.598 35.285 204.368 36.4657 203.908 37.401C203.448 38.321 202.812 39.011 201.999 39.471C201.187 39.931 200.251 40.161 199.193 40.161ZM199.538 37.7C200.228 37.7 200.842 37.5467 201.378 37.24C201.93 36.9333 202.367 36.4887 202.689 35.906C203.027 35.3233 203.195 34.641 203.195 33.859C203.195 33.0617 203.027 32.3793 202.689 31.812C202.367 31.2293 201.93 30.7847 201.378 30.478C200.842 30.1713 200.228 30.018 199.538 30.018C198.848 30.018 198.227 30.1713 197.675 30.478C197.139 30.7847 196.702 31.2293 196.364 31.812C196.042 32.3793 195.881 33.0617 195.881 33.859C195.881 34.641 196.042 35.3233 196.364 35.906C196.702 36.4887 197.139 36.9333 197.675 37.24C198.227 37.5467 198.848 37.7 199.538 37.7ZM203.264 40V37.102L203.379 33.836L203.149 30.57V22.934H206.001V40H203.264Z" fill="white"/>
</svg>
